<?xml version="1.0" encoding="UTF-8" standalone="no"?>
<!-- Created with Inkscape (http://www.inkscape.org/) -->

<svg
   xmlns:dc="http://purl.org/dc/elements/1.1/"
   xmlns:cc="http://creativecommons.org/ns#"
   xmlns:rdf="http://www.w3.org/1999/02/22-rdf-syntax-ns#"
   xmlns:svg="http://www.w3.org/2000/svg"
   xmlns="http://www.w3.org/2000/svg"
   xmlns:sodipodi="http://sodipodi.sourceforge.net/DTD/sodipodi-0.dtd"
   xmlns:inkscape="http://www.inkscape.org/namespaces/inkscape"
   width="210mm"
   height="297mm"
   viewBox="0 0 210 297"
   version="1.1"
   id="svg8"
   sodipodi:docname="foreground.svg"
   inkscape:version="0.92.5 (2060ec1f9f, 2020-04-08)">
  <defs
     id="defs2">
    <inkscape:perspective
       sodipodi:type="inkscape:persp3d"
       inkscape:vp_x="225.30495 : 147.53122 : 1"
       inkscape:vp_y="0 : 1010.5313 : 0"
       inkscape:vp_z="939.63171 : 147.53122 : 1"
       inkscape:persp3d-origin="582.46834 : 97.509916 : 1"
       id="perspective4616" />
    <inkscape:perspective
       id="perspective10"
       inkscape:persp3d-origin="372.04724 : 350.78739 : 1"
       inkscape:vp_z="744.09448 : 526.18109 : 1"
       inkscape:vp_y="0 : 1000 : 0"
       inkscape:vp_x="0 : 526.18109 : 1"
       sodipodi:type="inkscape:persp3d" />
  </defs>
  <sodipodi:namedview
     id="base"
     pagecolor="#ffffff"
     bordercolor="#666666"
     borderopacity="1.0"
     inkscape:pageopacity="0.0"
     inkscape:pageshadow="2"
     inkscape:zoom="1"
     inkscape:cx="8.2364744"
     inkscape:cy="739.60741"
     inkscape:document-units="px"
     inkscape:current-layer="layer1"
     showgrid="false"
     showborder="false"
     inkscape:object-paths="false"
     inkscape:snap-intersection-paths="false"
     inkscape:snap-smooth-nodes="false"
     inkscape:snap-midpoints="false"
     inkscape:object-nodes="false"
     inkscape:window-width="1920"
     inkscape:window-height="1015"
     inkscape:window-x="0"
     inkscape:window-y="0"
     inkscape:window-maximized="1" />
  <metadata
     id="metadata5">
    <rdf:RDF>
      <cc:Work
         rdf:about="">
        <dc:format>image/svg+xml</dc:format>
        <dc:type
           rdf:resource="http://purl.org/dc/dcmitype/StillImage" />
        <dc:title></dc:title>
      </cc:Work>
    </rdf:RDF>
  </metadata>
  <g
     inkscape:label="Layer 1"
     inkscape:groupmode="layer"
     id="layer1">
    <path
       style="fill:#bed2ff;stroke-width:0.26458332;fill-opacity:1"
       d="M -0.09921867,96.545012 56.620834,84.010376 1.1358281,91.151454 -2.9104166,96.181208 Z"
       id="rect4720"
       inkscape:connector-curvature="0"
       sodipodi:nodetypes="ccccc"
       inkscape:export-xdpi="99.900002"
       inkscape:export-ydpi="99.900002" />
    <path
       style="fill:#bed2ff;stroke-width:0.26458332;fill-opacity:1"
       d="m 61.383334,92.477081 5.291665,-5.027123 -47.889582,-5.820793 -7.14375,-0.529167 z"
       id="rect4717"
       inkscape:connector-curvature="0"
       sodipodi:nodetypes="ccccc"
       inkscape:export-xdpi="99.900002"
       inkscape:export-ydpi="99.900002" />
    <path
       style="fill:#c5e1ef;fill-opacity:1;stroke-width:0.26437253"
       d="m 13.772497,64.686484 12.74864,2.251077 c 4.324139,0.763478 7.191473,4.864154 6.429012,9.194261 L 26.89446,110.52256 c -0.762496,4.33009 -4.857447,7.2014 -9.181581,6.43788 L 4.9642229,114.70946 c -4.32413955,-0.76347 -7.1914732,-4.86415 -6.4290125,-9.19425 L 4.5908583,71.124468 C 5.353317,66.794361 9.4483039,63.923062 13.772437,64.686576 Z"
       id="rect4518"
       inkscape:connector-curvature="0"
       inkscape:export-xdpi="99.900002"
       inkscape:export-ydpi="99.900002" />
    <g
       id="layer1-3"
       inkscape:label="Layer 1"
       transform="matrix(0.5294706,0.09335995,-0.09335995,0.5294706,4.756345,74.223091)"
       inkscape:export-xdpi="99.900002"
       inkscape:export-ydpi="99.900002">
      <path
         transform="scale(1.05432,0.948479)"
         style="font-style:normal;font-variant:normal;font-weight:normal;font-stretch:normal;font-size:54.45833588px;font-family:'Earwig Factory';writing-mode:lr-tb;text-anchor:start;fill:#000000;fill-opacity:1;stroke:none;stroke-width:1px;stroke-linecap:butt;stroke-linejoin:miter;stroke-opacity:1"
         d="m 45.062922,26.927346 c -3.882326,2.145007 -7.622788,3.217509 -11.221396,3.21751 -5.850045,-1e-6 -9.936189,-1.887959 -12.258443,-5.66388 -3.580939,3.775921 -7.534128,5.663879 -11.8595793,5.66388 C 7.1175789,30.144855 4.999166,29.471217 3.3682585,28.123941 1.7550691,26.75894 0.94847675,24.870982 0.94847888,22.460061 0.94847675,20.563246 1.427114,18.958925 2.384392,17.647093 3.3416629,16.317557 4.7864383,15.280509 6.7187225,14.535948 8.6687181,13.791416 11.168268,13.312779 14.21738,13.100035 L 19.907851,12.70117 V 11.823667 C 19.90783,9.0227707 19.438056,7.1702673 18.498529,6.2661516 17.558962,5.3620822 15.883731,4.9100359 13.472832,4.9100114 12.231906,4.9100359 10.689631,5.1848092 8.8460012,5.7343319 7.0200788,6.2661748 5.4778032,6.8866305 4.2191699,7.5957008 L 2.8630297,4.0590999 C 4.3521193,3.17276 6.1691681,2.4548042 8.3141815,1.9052302 10.476903,1.3379839 12.453498,1.0543471 14.243971,1.0543187 c 4.750902,2.84e-5 7.684771,1.3473036 8.801616,4.0418296 2.180434,-2.694526 5.344758,-4.0418012 9.492981,-4.0418296 3.563155,2.84e-5 6.443842,1.2320761 8.64207,3.6961468 2.215871,2.4463928 3.323828,5.7525355 3.323873,9.9184375 v 1.249776 H 24.641046 c 0.265884,6.825026 3.31498,10.237532 9.147299,10.237529 3.314971,3e-6 6.621113,-1.00159 9.918437,-3.004781 l 1.35614,3.775919 M 39.61177,12.328896 C 39.399002,10.059818 38.627864,8.2693603 37.298354,6.9575172 35.968768,5.6279918 34.364447,4.9632179 32.485386,4.9631934 28.248527,4.9632179 25.686931,7.4184496 24.800592,12.328896 H 39.61177 m -19.118918,9.094117 c -0.514113,-1.613177 -0.771159,-3.359317 -0.771138,-5.238424 -3.651846,0.248195 -6.098214,0.452059 -7.339112,0.611592 -1.223197,0.141831 -2.3931996,0.434332 -3.5100098,0.877503 -1.1168303,0.443194 -1.9677409,1.037059 -2.5527345,1.781596 -0.5672813,0.744557 -0.8509181,1.67524 -0.8509115,2.792053 -6.6e-6,1.240919 0.4609033,2.207057 1.3827312,2.898417 0.9218118,0.673642 2.1804505,1.010461 3.7759196,1.010458 1.666355,3e-6 3.430222,-0.443179 5.291606,-1.329549 1.879077,-0.886361 3.403626,-2.020909 4.573649,-3.403646"
         id="text1984"
         inkscape:connector-curvature="0" />
    </g>
    <path
       inkscape:connector-curvature="0"
       id="path4521"
       d="m 24.355824,64.686464 12.748653,2.251079 c 4.324136,0.763478 7.19147,4.864155 6.428999,9.194262 l -6.05559,34.390755 c -0.762495,4.33009 -4.85745,7.2014 -9.18158,6.43788 L 15.547647,114.70946 C 11.223511,113.94598 8.3561668,109.84531 9.1186368,105.5152 L 15.174324,71.124473 c 0.762498,-4.3301 4.857449,-7.201405 9.18157,-6.437891 z"
       style="fill:#cae6f4;fill-opacity:1;stroke-width:0.26437256"
       inkscape:export-xdpi="99.900002"
       inkscape:export-ydpi="99.900002" />
    <path
       id="path4992"
       d="m 39.917905,74.944062 -6.840898,-1.206235 a 1.389305,1.389305 0 0 0 -0.482501,2.736397 l 2.05227,0.36187 -1.447479,8.209062 -6.772379,-1.194153 a 6.8786892,6.8786892 0 0 0 2.126917,-3.857123 6.946431,6.946431 0 0 0 -12.162109,-5.671308 1.3889249,1.3889249 0 1 0 2.127651,1.785864 4.1681501,4.1681501 0 1 1 2.469817,6.78375 1.389295,1.389295 0 0 0 -0.482497,2.736377 4.1678584,4.1678584 0 1 1 -4.641041,5.529872 1.3889249,1.3889249 0 0 0 -2.610161,0.95044 6.946431,6.946431 0 0 0 13.368361,-1.169536 6.8786892,6.8786892 0 0 0 -0.679435,-4.351959 l 6.772378,1.194153 -1.688728,9.577256 a 1.3892862,1.3892862 0 0 0 2.736359,0.482493 l 3.618705,-20.522694 2.052269,0.361871 a 1.389305,1.389305 0 0 0 0.482501,-2.736397 z"
       inkscape:connector-curvature="0"
       style="stroke-width:1.38928604"
       inkscape:export-xdpi="99.900002"
       inkscape:export-ydpi="99.900002" />
    <path
       style="fill:#cfebf9;fill-opacity:1;stroke-width:0.26437256"
       d="m 34.939155,64.686481 12.748653,2.251079 c 4.324136,0.763478 7.19147,4.864155 6.429,9.194261 l -6.055689,34.390739 c -0.762496,4.33009 -4.85745,7.2014 -9.18158,6.43788 L 26.13088,114.70946 c -4.324136,-0.76348 -7.19148,-4.86415 -6.429009,-9.19426 l 6.055687,-34.390728 c 0.762498,-4.330099 4.857449,-7.201405 9.18157,-6.437891 z"
       id="path4532"
       inkscape:connector-curvature="0"
       inkscape:export-xdpi="99.900002"
       inkscape:export-ydpi="99.900002" />
    <g
       id="g4990"
       transform="matrix(0.06373116,0.01123752,-0.01123752,0.06373116,22.831421,66.414298)"
       inkscape:export-xdpi="99.900002"
       inkscape:export-ydpi="99.900002">
      <g
         id="g4897">
	<g
   id="g4895">
		<path
   id="path4893"
   d="m 256.001,331.085 c -8.892,16.042 -18.722,31.583 -29.45,46.534 v 104.932 c 0,16.265 13.185,29.45 29.45,29.45 16.265,0 29.451,-13.186 29.451,-29.45 v -104.93 c -10.729,-14.952 -20.56,-30.494 -29.451,-46.536 z"
   inkscape:connector-curvature="0" />

	</g>

</g>
      <g
         id="g4903">
	<g
   id="g4901">
		<path
   id="path4899"
   d="M 410.19,384.952 C 359.539,338.62 322.693,279.757 302.687,215.266 h -1.137 c -7.074,28.505 -16.771,56.266 -28.94,82.907 24.071,48.643 57.071,92.959 97.825,130.24 5.651,5.169 12.771,7.72 19.87,7.72 7.978,0 15.929,-3.222 21.738,-9.573 10.979,-12.001 10.149,-30.63 -1.853,-41.608 z"
   inkscape:connector-curvature="0" />

	</g>

</g>
      <g
         id="g4909">
	<g
   id="g4907">
		<path
   id="path4905"
   d="m 101.442,126.365 v 0 c -16.265,0.001 -29.45,13.186 -29.45,29.451 0,16.265 13.186,29.45 29.45,29.45 h 85.062 c 4.691,-19.253 7.781,-38.954 9.179,-58.901 z"
   inkscape:connector-curvature="0" />

	</g>

</g>
      <g
         id="g4915">
	<g
   id="g4913">
		<path
   id="path4911"
   d="m 410.559,126.366 h -95.751 c -1.04,19.836 -3.341,39.505 -6.837,58.901 H 410.56 c 16.263,-0.001 29.449,-13.186 29.449,-29.451 0,-16.265 -13.187,-29.45 -29.45,-29.45 z"
   inkscape:connector-curvature="0" />

	</g>

</g>
      <g
         id="g4921">
	<g
   id="g4919">
		<path
   id="path4917"
   d="m 256.001,0 c -16.265,0 -29.45,13.185 -29.45,29.45 v 72.341 c 0,107.437 -45.465,210.645 -124.74,283.161 -12.001,10.978 -12.831,29.606 -1.853,41.608 5.81,6.35 13.76,9.573 21.738,9.573 7.099,0 14.219,-2.551 19.87,-7.72 91.441,-83.646 143.886,-202.694 143.886,-326.621 V 29.45 C 285.452,13.184 272.267,0 256.001,0 Z"
   inkscape:connector-curvature="0" />

	</g>

</g>
      <g
         id="g4923">
</g>
      <g
         id="g4925">
</g>
      <g
         id="g4927">
</g>
      <g
         id="g4929">
</g>
      <g
         id="g4931">
</g>
      <g
         id="g4933">
</g>
      <g
         id="g4935">
</g>
      <g
         id="g4937">
</g>
      <g
         id="g4939">
</g>
      <g
         id="g4941">
</g>
      <g
         id="g4943">
</g>
      <g
         id="g4945">
</g>
      <g
         id="g4947">
</g>
      <g
         id="g4949">
</g>
      <g
         id="g4951">
</g>
    </g>
    <path
       inkscape:connector-curvature="0"
       id="path4534"
       d="m 45.52249,64.686464 12.748653,2.251079 c 4.324136,0.763477 7.19147,4.864154 6.428999,9.194261 l -6.05559,34.390756 c -0.762496,4.33009 -4.85745,7.2014 -9.18158,6.43788 l -12.748659,-2.25098 c -4.324136,-0.76348 -7.19148,-4.86415 -6.429009,-9.19426 l 6.055687,-34.390728 c 0.762498,-4.330099 4.857449,-7.201405 9.18157,-6.437891 z"
       style="fill:#d4f0fe;fill-opacity:1;stroke-width:0.26437256"
       inkscape:export-xdpi="99.900002"
       inkscape:export-ydpi="99.900002" />
    <g
       id="layer1-7"
       inkscape:label="Layer 1"
       transform="matrix(0.04139562,0.00729916,-0.00729916,0.04139562,39.111597,56.317774)"
       inkscape:export-xdpi="99.900002"
       inkscape:export-ydpi="99.900002">
      <path
         id="text8559"
         d="m 148,554.36218 19,1 c 5.99983,2.0005 11.33316,4.66716 16,8 2.66648,2.00049 53.3331,55.6671 152,161 l 148,159 v -145 c -4.8e-4,-98.66625 1.66618,-150.99953 5,-157 6.66617,-12.66618 16.66616,-21.33284 30,-26 h 22 c 1.33279,5e-4 2.33279,5e-4 3,0 6.66612,2.0005 12.66611,5.33383 18,10 7.99943,6.00048 13.66609,14.33381 17,25 0.66609,2.66713 0.99942,73.66706 1,213 -5.8e-4,139.33345 -0.33391,210.33342 -1,213.00002 -1.33391,2.6667 -2.66724,5.6667 -4,9 -4.66724,10 -12.00056,17.3333 -22,22 -8.66721,4 -17.6672,5.6666 -27,5 -3.33386,-0.6667 -6.66719,-1.6667 -10,-3 -6.00051,-2 -11.66717,-5.6667 -17,-11 -4.00049,-3.3333 -54.00044,-56.66661 -150,-160.00002 l -145,-155 -1,145 c -2e-4,98.66675 -1.66687,151.00002 -5,157.00002 -4.66686,10 -11.66685,17.3333 -21,22 -6.00017,2.6667 -12.00016,4.3333 -18,5 l -19,-3 -9,-4 c -6.66679,-4 -12.33345,-9.6667 -17,-17 -2.66678,-4.6667 -4.66678,-10.3333 -6,-17 V 800.36218 c -1.1e-4,-137.99961 0.33323,-207.99954 1,-210 1.99989,-7.33286 4.99989,-13.66619 9,-19 7.99988,-8.66617 18.3332,-14.33284 31,-17 m -2,-241 c 2.66652,-0.66592 4.99985,-0.99926 7,-1 l 167,18 165,17 c -4.9e-4,7.1e-4 0.33285,-1.33262 1,-4 1.99951,-5.33262 5.99951,-10.66594 12,-16 5.33283,-5.99927 10.99949,-9.99926 17,-12 7.99948,-2.66592 15.99947,-3.33259 24,-2 4.66612,0.66741 8.99945,2.00074 13,4 9.99944,4.6674 17.33276,12.00073 22,22 2.66609,6.66738 4.33275,19.33403 5,38 l -2,35 c -5.8e-4,1.33397 -0.33391,3.00064 -1,5 -2.00057,5.33397 -5.66724,10.66729 -11,16 -8.00056,8.66728 -17.66721,13.66727 -29,15 l -170,-17 -164,-17 c -1.33353,6.4e-4 -2.33353,1.00064 -3,3 -2.0002,5.33397 -5.33353,10.66729 -10,16 -8.00018,8.66728 -17.66684,13.66727 -29,15 -6.66682,0.66727 -13.33348,6.1e-4 -20,-2 -4.00014,-1.33272 -7.6668,-2.99939 -11,-5 -6.66679,-3.99938 -12.00012,-9.33271 -16,-16 -1.33344,-2.66603 -2.33344,-5.3327 -3,-8 -2.00011,-5.99936 -3.00011,-18.33268 -3,-37 -1.1e-4,-18.66597 0.99989,-30.99929 3,-37 1.99989,-5.33262 5.66655,-10.66594 11,-16 7.3332,-7.3326 15.66653,-11.99926 25,-14"
         style="font-style:normal;font-variant:normal;font-weight:normal;font-stretch:normal;font-size:1000px;font-family:OCRA;-inkscape-font-specification:OCRA;fill:#000000;fill-opacity:1;stroke:none;stroke-width:1px;stroke-linecap:butt;stroke-linejoin:miter;stroke-opacity:1"
         inkscape:connector-curvature="0" />
    </g>
    <path
       style="fill:#bed2ff;stroke-width:0.54547888;fill-opacity:1"
       d="m 252,330.51953 -56,51.16797 -207,-18.16797 0,79.83203 207,18.16797 56,-51.16797 z"
       transform="scale(0.26458333)"
       id="rect4671"
       inkscape:connector-curvature="0"
       sodipodi:nodetypes="ccccccc"
       inkscape:export-xdpi="99.900002"
       inkscape:export-ydpi="99.900002" />
  </g>
</svg>
